<?xml version="1.0" encoding="UTF-8"?>
<svg xmlns="http://www.w3.org/2000/svg" xmlns:xlink="http://www.w3.org/1999/xlink" stroke-dasharray="none" shape-rendering="auto" font-family="'Dialog'" width="1268" text-rendering="auto" fill-opacity="1" contentScriptType="text/ecmascript" color-interpolation="auto" color-rendering="auto" preserveAspectRatio="xMidYMid meet" font-size="12" viewBox="0 0 1268 1181" fill="black" stroke="black" image-rendering="auto" stroke-miterlimit="10" zoomAndPan="magnify" version="1.0" stroke-linecap="square" stroke-linejoin="miter" contentStyleType="text/css" font-style="normal" height="1181" stroke-width="1" stroke-dashoffset="0" font-weight="normal" stroke-opacity="1">
<!--Generated by the Batik Graphics2D SVG Generator-->
<defs id="genericDefs"/>
<g>
<defs id="defs1">
<clipPath clipPathUnits="userSpaceOnUse" id="clipPath1">
<path d="M9 9 L1259 9 L1259 1172 L9 1172 L9 9 Z"/>
</clipPath>
<clipPath clipPathUnits="userSpaceOnUse" id="clipPath2">
<path d="M19 14 L63 14 L63 31 L19 31 L19 14 Z"/>
</clipPath>
<clipPath clipPathUnits="userSpaceOnUse" id="clipPath3">
<path d="M121 178 L143 178 L143 200 L121 200 L121 178 Z"/>
</clipPath>
<clipPath clipPathUnits="userSpaceOnUse" id="clipPath4">
<path d="M237 172 L348 172 L348 223 L237 223 L237 172 Z"/>
</clipPath>
<clipPath clipPathUnits="userSpaceOnUse" id="clipPath5">
<path d="M248 189 L336 189 L336 206 L248 206 L248 189 Z"/>
</clipPath>
<clipPath clipPathUnits="userSpaceOnUse" id="clipPath6">
<path d="M222 181 L240 181 L240 199 L222 199 L222 181 Z"/>
</clipPath>
<clipPath clipPathUnits="userSpaceOnUse" id="clipPath7">
<path d="M202 146 L258 146 L258 163 L202 163 L202 146 Z"/>
</clipPath>
<clipPath clipPathUnits="userSpaceOnUse" id="clipPath8">
<path d="M573 172 L660 172 L660 223 L573 223 L573 172 Z"/>
</clipPath>
<clipPath clipPathUnits="userSpaceOnUse" id="clipPath9">
<path d="M583 189 L650 189 L650 206 L583 206 L583 189 Z"/>
</clipPath>
<clipPath clipPathUnits="userSpaceOnUse" id="clipPath10">
<path d="M705 172 L782 172 L782 214 L705 214 L705 172 Z"/>
</clipPath>
<clipPath clipPathUnits="userSpaceOnUse" id="clipPath11">
<path d="M706 184 L781 184 L781 201 L706 201 L706 184 Z"/>
</clipPath>
<clipPath clipPathUnits="userSpaceOnUse" id="clipPath12">
<path d="M389 172 L554 172 L554 214 L389 214 L389 172 Z"/>
</clipPath>
<clipPath clipPathUnits="userSpaceOnUse" id="clipPath13">
<path d="M444 185 L549 185 L549 202 L444 202 L444 185 Z"/>
</clipPath>
<clipPath clipPathUnits="userSpaceOnUse" id="clipPath14">
<path d="M729 268 L751 268 L751 300 L729 300 L729 268 Z"/>
</clipPath>
<clipPath clipPathUnits="userSpaceOnUse" id="clipPath15">
<path d="M294 376 L384 376 L384 419 L294 419 L294 376 Z"/>
</clipPath>
<clipPath clipPathUnits="userSpaceOnUse" id="clipPath16">
<path d="M299 389 L379 389 L379 406 L299 406 L299 389 Z"/>
</clipPath>
<clipPath clipPathUnits="userSpaceOnUse" id="clipPath17">
<path d="M221 244 L346 244 L346 286 L221 286 L221 244 Z"/>
</clipPath>
<clipPath clipPathUnits="userSpaceOnUse" id="clipPath18">
<path d="M222 256 L345 256 L345 273 L222 273 L222 256 Z"/>
</clipPath>
<clipPath clipPathUnits="userSpaceOnUse" id="clipPath19">
<path d="M230 283 L248 283 L248 301 L230 301 L230 283 Z"/>
</clipPath>
<clipPath clipPathUnits="userSpaceOnUse" id="clipPath20">
<path d="M180 263 L212 263 L212 280 L180 280 L180 263 Z"/>
</clipPath>
<clipPath clipPathUnits="userSpaceOnUse" id="clipPath21">
<path d="M665 352 L812 352 L812 619 L665 619 L665 352 Z"/>
</clipPath>
<clipPath clipPathUnits="userSpaceOnUse" id="clipPath22">
<path d="M671 358 L766 358 L766 375 L671 375 L671 358 Z"/>
</clipPath>
<clipPath clipPathUnits="userSpaceOnUse" id="clipPath23">
<path d="M671 376 L792 376 L792 418 L671 418 L671 376 Z"/>
</clipPath>
<clipPath clipPathUnits="userSpaceOnUse" id="clipPath24">
<path d="M683 388 L780 388 L780 405 L683 405 L683 388 Z"/>
</clipPath>
<clipPath clipPathUnits="userSpaceOnUse" id="clipPath25">
<path d="M671 424 L792 424 L792 466 L671 466 L671 424 Z"/>
</clipPath>
<clipPath clipPathUnits="userSpaceOnUse" id="clipPath26">
<path d="M677 436 L786 436 L786 453 L677 453 L677 436 Z"/>
</clipPath>
<clipPath clipPathUnits="userSpaceOnUse" id="clipPath27">
<path d="M437 352 L548 352 L548 488 L437 488 L437 352 Z"/>
</clipPath>
<clipPath clipPathUnits="userSpaceOnUse" id="clipPath28">
<path d="M443 358 L538 358 L538 375 L443 375 L443 358 Z"/>
</clipPath>
<clipPath clipPathUnits="userSpaceOnUse" id="clipPath29">
<path d="M449 425 L516 425 L516 467 L449 467 L449 425 Z"/>
</clipPath>
<clipPath clipPathUnits="userSpaceOnUse" id="clipPath30">
<path d="M455 437 L510 437 L510 454 L455 454 L455 437 Z"/>
</clipPath>
<clipPath clipPathUnits="userSpaceOnUse" id="clipPath31">
<path d="M449 377 L516 377 L516 419 L449 419 L449 377 Z"/>
</clipPath>
<clipPath clipPathUnits="userSpaceOnUse" id="clipPath32">
<path d="M457 389 L507 389 L507 406 L457 406 L457 389 Z"/>
</clipPath>
<clipPath clipPathUnits="userSpaceOnUse" id="clipPath33">
<path d="M669 652 L852 652 L852 1123 L669 1123 L669 652 Z"/>
</clipPath>
<clipPath clipPathUnits="userSpaceOnUse" id="clipPath34">
<path d="M675 658 L770 658 L770 675 L675 675 L675 658 Z"/>
</clipPath>
<clipPath clipPathUnits="userSpaceOnUse" id="clipPath35">
<path d="M681 724 L780 724 L780 766 L681 766 L681 724 Z"/>
</clipPath>
<clipPath clipPathUnits="userSpaceOnUse" id="clipPath36">
<path d="M689 736 L772 736 L772 753 L689 753 L689 736 Z"/>
</clipPath>
<clipPath clipPathUnits="userSpaceOnUse" id="clipPath37">
<path d="M681 772 L780 772 L780 814 L681 814 L681 772 Z"/>
</clipPath>
<clipPath clipPathUnits="userSpaceOnUse" id="clipPath38">
<path d="M686 784 L775 784 L775 801 L686 801 L686 784 Z"/>
</clipPath>
<clipPath clipPathUnits="userSpaceOnUse" id="clipPath39">
<path d="M681 676 L768 676 L768 718 L681 718 L681 676 Z"/>
</clipPath>
<clipPath clipPathUnits="userSpaceOnUse" id="clipPath40">
<path d="M689 688 L759 688 L759 705 L689 705 L689 688 Z"/>
</clipPath>
<clipPath clipPathUnits="userSpaceOnUse" id="clipPath41">
<path d="M681 820 L768 820 L768 862 L681 862 L681 820 Z"/>
</clipPath>
<clipPath clipPathUnits="userSpaceOnUse" id="clipPath42">
<path d="M687 832 L762 832 L762 849 L687 849 L687 832 Z"/>
</clipPath>
<clipPath clipPathUnits="userSpaceOnUse" id="clipPath43">
<path d="M681 868 L816 868 L816 910 L681 910 L681 868 Z"/>
</clipPath>
<clipPath clipPathUnits="userSpaceOnUse" id="clipPath44">
<path d="M689 880 L808 880 L808 897 L689 897 L689 880 Z"/>
</clipPath>
<clipPath clipPathUnits="userSpaceOnUse" id="clipPath45">
<path d="M681 916 L744 916 L744 958 L681 958 L681 916 Z"/>
</clipPath>
<clipPath clipPathUnits="userSpaceOnUse" id="clipPath46">
<path d="M689 928 L736 928 L736 945 L689 945 L689 928 Z"/>
</clipPath>
<clipPath clipPathUnits="userSpaceOnUse" id="clipPath47">
<path d="M681 964 L828 964 L828 1006 L681 1006 L681 964 Z"/>
</clipPath>
<clipPath clipPathUnits="userSpaceOnUse" id="clipPath48">
<path d="M693 976 L815 976 L815 993 L693 993 L693 976 Z"/>
</clipPath>
<clipPath clipPathUnits="userSpaceOnUse" id="clipPath49">
<path d="M681 1012 L723 1012 L723 1054 L681 1054 L681 1012 Z"/>
</clipPath>
<clipPath clipPathUnits="userSpaceOnUse" id="clipPath50">
<path d="M689 1024 L714 1024 L714 1041 L689 1041 L689 1024 Z"/>
</clipPath>
<clipPath clipPathUnits="userSpaceOnUse" id="clipPath51">
<path d="M669 520 L796 520 L796 562 L669 562 L669 520 Z"/>
</clipPath>
<clipPath clipPathUnits="userSpaceOnUse" id="clipPath52">
<path d="M673 532 L791 532 L791 549 L673 549 L673 532 Z"/>
</clipPath>
<clipPath clipPathUnits="userSpaceOnUse" id="clipPath53">
<path d="M669 568 L711 568 L711 610 L669 610 L669 568 Z"/>
</clipPath>
<clipPath clipPathUnits="userSpaceOnUse" id="clipPath54">
<path d="M677 580 L702 580 L702 597 L677 597 L677 580 Z"/>
</clipPath>
<clipPath clipPathUnits="userSpaceOnUse" id="clipPath55">
<path d="M669 472 L790 472 L790 514 L669 514 L669 472 Z"/>
</clipPath>
<clipPath clipPathUnits="userSpaceOnUse" id="clipPath56">
<path d="M676 484 L783 484 L783 501 L676 501 L676 484 Z"/>
</clipPath>
<clipPath clipPathUnits="userSpaceOnUse" id="clipPath57">
<path d="M141 100 L237 100 L237 144 L141 144 L141 100 Z"/>
</clipPath>
<clipPath clipPathUnits="userSpaceOnUse" id="clipPath58">
<path d="M147 106 L231 106 L231 138 L147 138 L147 106 Z"/>
</clipPath>
<clipPath clipPathUnits="userSpaceOnUse" id="clipPath59">
<path d="M933 856 L1003 856 L1003 898 L933 898 L933 856 Z"/>
</clipPath>
<clipPath clipPathUnits="userSpaceOnUse" id="clipPath60">
<path d="M934 868 L1002 868 L1002 885 L934 885 L934 868 Z"/>
</clipPath>
<clipPath clipPathUnits="userSpaceOnUse" id="clipPath61">
<path d="M1000 871 L1018 871 L1018 889 L1000 889 L1000 871 Z"/>
</clipPath>
<clipPath clipPathUnits="userSpaceOnUse" id="clipPath62">
<path d="M1036 892 L1113 892 L1113 909 L1036 909 L1036 892 Z"/>
</clipPath>
<clipPath clipPathUnits="userSpaceOnUse" id="clipPath63">
<path d="M1101 856 L1197 856 L1197 900 L1101 900 L1101 856 Z"/>
</clipPath>
<clipPath clipPathUnits="userSpaceOnUse" id="clipPath64">
<path d="M1107 862 L1191 862 L1191 894 L1107 894 L1107 862 Z"/>
</clipPath>
<clipPath clipPathUnits="userSpaceOnUse" id="clipPath65">
<path d="M1238 35 L1254 35 L1254 1167 L1238 1167 L1238 35 Z"/>
</clipPath>
<clipPath clipPathUnits="userSpaceOnUse" id="clipPath66">
<path d="M1240 35 L1254 35 L1254 49 L1240 49 L1240 35 Z"/>
</clipPath>
<clipPath clipPathUnits="userSpaceOnUse" id="clipPath67">
<path d="M1240 1153 L1254 1153 L1254 1167 L1240 1167 L1240 1153 Z"/>
</clipPath>
<clipPath clipPathUnits="userSpaceOnUse" id="clipPath68">
<path d="M1240 47 L1254 47 L1254 1082 L1240 1082 L1240 47 Z"/>
</clipPath>
<clipPath clipPathUnits="userSpaceOnUse" id="clipPath69">
<path d="M-1 -1 L1269 -1 L1269 1182 L-1 1182 L-1 -1 Z"/>
</clipPath>
<clipPath clipPathUnits="userSpaceOnUse" id="clipPath70">
<path d="M485 162 L496 162 L496 175 L485 175 L485 162 Z"/>
</clipPath>
<clipPath clipPathUnits="userSpaceOnUse" id="clipPath71">
<path d="M631 133 L637 133 L637 150 L631 150 L631 133 Z"/>
</clipPath>
<clipPath clipPathUnits="userSpaceOnUse" id="clipPath72">
<path d="M661 390 L674 390 L674 401 L661 401 L661 390 Z"/>
</clipPath>
<clipPath clipPathUnits="userSpaceOnUse" id="clipPath73">
<path d="M561 400 L567 400 L567 417 L561 417 L561 400 Z"/>
</clipPath>
<clipPath clipPathUnits="userSpaceOnUse" id="clipPath74">
<path d="M671 689 L684 689 L684 700 L671 700 L671 689 Z"/>
</clipPath>
<clipPath clipPathUnits="userSpaceOnUse" id="clipPath75">
<path d="M457 495 L463 495 L463 512 L457 512 L457 495 Z"/>
</clipPath>
<clipPath clipPathUnits="userSpaceOnUse" id="clipPath76">
<path d="M617 221 L628 221 L628 234 L617 234 L617 221 Z"/>
</clipPath>
<clipPath clipPathUnits="userSpaceOnUse" id="clipPath77">
<path d="M653 268 L687 268 L687 285 L653 285 L653 268 Z"/>
</clipPath>
<clipPath clipPathUnits="userSpaceOnUse" id="clipPath78">
<path d="M695 185 L708 185 L708 196 L695 196 L695 185 Z"/>
</clipPath>
<clipPath clipPathUnits="userSpaceOnUse" id="clipPath79">
<path d="M669 196 L675 196 L675 213 L669 213 L669 196 Z"/>
</clipPath>
<clipPath clipPathUnits="userSpaceOnUse" id="clipPath80">
<path d="M963 846 L974 846 L974 859 L963 859 L963 846 Z"/>
</clipPath>
<clipPath clipPathUnits="userSpaceOnUse" id="clipPath81">
<path d="M786 601 L792 601 L792 618 L786 618 L786 601 Z"/>
</clipPath>
<clipPath clipPathUnits="userSpaceOnUse" id="clipPath82">
<path d="M732 262 L743 262 L743 275 L732 275 L732 262 Z"/>
</clipPath>
<clipPath clipPathUnits="userSpaceOnUse" id="clipPath83">
<path d="M714 214 L720 214 L720 231 L714 231 L714 214 Z"/>
</clipPath>
<clipPath clipPathUnits="userSpaceOnUse" id="clipPath84">
<path d="M278 234 L289 234 L289 247 L278 247 L278 234 Z"/>
</clipPath>
<clipPath clipPathUnits="userSpaceOnUse" id="clipPath85">
<path d="M260 217 L266 217 L266 234 L260 234 L260 217 Z"/>
</clipPath>
<clipPath clipPathUnits="userSpaceOnUse" id="clipPath86">
<path d="M563 190 L576 190 L576 201 L563 201 L563 190 Z"/>
</clipPath>
<clipPath clipPathUnits="userSpaceOnUse" id="clipPath87">
<path d="M556 196 L562 196 L562 213 L556 213 L556 196 Z"/>
</clipPath>
<clipPath clipPathUnits="userSpaceOnUse" id="clipPath88">
<path d="M379 188 L392 188 L392 199 L379 199 L379 188 Z"/>
</clipPath>
<clipPath clipPathUnits="userSpaceOnUse" id="clipPath89">
<path d="M359 196 L365 196 L365 213 L359 213 L359 196 Z"/>
</clipPath>
<clipPath clipPathUnits="userSpaceOnUse" id="clipPath90">
<path d="M1091 874 L1104 874 L1104 885 L1091 885 L1091 874 Z"/>
</clipPath>
<clipPath clipPathUnits="userSpaceOnUse" id="clipPath91">
<path d="M225 171 L236 171 L236 184 L225 184 L225 171 Z"/>
</clipPath>
<clipPath clipPathUnits="userSpaceOnUse" id="clipPath92">
<path d="M227 186 L240 186 L240 197 L227 197 L227 186 Z"/>
</clipPath>
<clipPath clipPathUnits="userSpaceOnUse" id="clipPath93">
<path d="M161 196 L167 196 L167 213 L161 213 L161 196 Z"/>
</clipPath>
<clipPath clipPathUnits="userSpaceOnUse" id="clipPath94">
<path d="M284 386 L297 386 L297 397 L284 397 L284 386 Z"/>
</clipPath>
<clipPath clipPathUnits="userSpaceOnUse" id="clipPath95">
<path d="M583 308 L614 308 L614 325 L583 325 L583 308 Z"/>
</clipPath>
<clipPath clipPathUnits="userSpaceOnUse" id="clipPath96">
<path d="M969 896 L980 896 L980 909 L969 909 L969 896 Z"/>
</clipPath>
<clipPath clipPathUnits="userSpaceOnUse" id="clipPath97">
<path d="M776 1039 L782 1039 L782 1056 L776 1056 L776 1039 Z"/>
</clipPath>
<clipPath clipPathUnits="userSpaceOnUse" id="clipPath98">
<path d="M439 393 L452 393 L452 404 L439 404 L439 393 Z"/>
</clipPath>
<clipPath clipPathUnits="userSpaceOnUse" id="clipPath99">
<path d="M390 410 L396 410 L396 427 L390 427 L390 410 Z"/>
</clipPath>
</defs>
<g fill="white" font-family="'Segoe UI'" stroke-linejoin="round" stroke="white" stroke-width="0" stroke-miterlimit="0">
<rect x="10" y="10" clip-path="url(#clipPath1)" width="1248" rx="7.5" ry="7.5" height="1161" stroke="none"/>
<text x="20" y="28" clip-path="url(#clipPath2)" fill="black" stroke="none" xml:space="preserve">Cinema</text>
<circle r="9.5" clip-path="url(#clipPath3)" cx="131.5" cy="188.5" stroke="none"/>
</g>
<g stroke-width="0.1" font-family="'Segoe UI'" stroke-linecap="butt">
<circle fill="none" r="9.5" clip-path="url(#clipPath3)" cx="131.5" cy="188.5"/>
<circle r="9.5" clip-path="url(#clipPath3)" cx="131.5" cy="188.5" stroke="none"/>
<rect x="238" y="173" clip-path="url(#clipPath4)" fill="white" width="109" rx="7.5" ry="7.5" height="49" stroke="none"/>
<text xml:space="preserve" x="249" y="203" clip-path="url(#clipPath5)" stroke="none">Utilities.initialise</text>
<rect x="238" y="173" clip-path="url(#clipPath4)" fill="none" width="108" rx="7.5" ry="7.5" height="48" stroke-width="1.1"/>
<rect x="223" y="182" clip-path="url(#clipPath6)" fill="white" width="16" height="16" stroke="none" stroke-width="1.1"/>
<rect x="223" y="182" clip-path="url(#clipPath6)" fill="none" width="15" height="15" stroke-width="1.1"/>
<text x="203" y="160" clip-path="url(#clipPath7)" stroke="none" stroke-width="1.1" xml:space="preserve">serial data</text>
<rect x="574" y="173" clip-path="url(#clipPath8)" fill="white" width="85" rx="7.5" ry="7.5" height="49" stroke="none" stroke-width="1.1"/>
<text x="584" y="203" clip-path="url(#clipPath9)" stroke="none" stroke-width="1.1" xml:space="preserve">LoginScreen</text>
<rect x="574" y="173" clip-path="url(#clipPath8)" fill="none" width="84" rx="7.5" ry="7.5" height="48" stroke-width="1.1"/>
<rect x="706" y="173" clip-path="url(#clipPath10)" fill="white" width="75" rx="7.5" ry="7.5" height="40" stroke="none" stroke-width="1.1"/>
<text x="707" y="198" clip-path="url(#clipPath11)" stroke="none" stroke-width="1.1" xml:space="preserve">user matched</text>
<rect x="706" y="173" clip-path="url(#clipPath10)" fill="none" width="74" rx="7.5" ry="7.5" height="39" stroke-width="1.1"/>
<polygon fill="white" stroke-width="1.1" clip-path="url(#clipPath12)" points=" 390 173 552 173 552 212 390 212 430 192" stroke="none"/>
<polygon fill="none" stroke-width="1.1" clip-path="url(#clipPath12)" points=" 390 173 552 173 552 212 390 212 430 192"/>
<text x="445" y="199" clip-path="url(#clipPath13)" stroke="none" stroke-width="1.1" xml:space="preserve">Scanner(system.ini)</text>
<polygon fill="white" stroke-width="1.1" clip-path="url(#clipPath14)" points=" 739 269 749 283 739 298 730 283" stroke="none"/>
<polygon fill="none" clip-path="url(#clipPath14)" points=" 739 269 749 283 739 298 730 283"/>
<polygon fill="white" clip-path="url(#clipPath14)" points=" 739 269 749 283 739 298 730 283" stroke="none"/>
<polygon fill="none" stroke-width="1.1" clip-path="url(#clipPath14)" points=" 739 269 749 283 739 298 730 283"/>
<rect x="295" y="377" clip-path="url(#clipPath15)" fill="white" width="88" rx="7.5" ry="7.5" height="41" stroke="none" stroke-width="1.1"/>
<text x="300" y="403" clip-path="url(#clipPath16)" stroke="none" stroke-width="1.1" xml:space="preserve">performAction</text>
<rect x="295" y="377" clip-path="url(#clipPath15)" fill="none" width="87" rx="7.5" ry="7.5" height="40" stroke-width="1.1"/>
<rect x="222" y="245" clip-path="url(#clipPath17)" fill="white" width="123" rx="7.5" ry="7.5" height="40" stroke="none" stroke-width="1.1"/>
<text x="223" y="270" clip-path="url(#clipPath18)" stroke="none" stroke-width="1.1" xml:space="preserve">BookingSystem Object</text>
<rect x="222" y="245" clip-path="url(#clipPath17)" fill="none" width="122" rx="7.5" ry="7.5" height="39" stroke-width="1.1"/>
<rect x="231" y="284" clip-path="url(#clipPath19)" fill="white" width="16" height="16" stroke="none" stroke-width="1.1"/>
<rect x="231" y="284" clip-path="url(#clipPath19)" fill="none" width="15" height="15" stroke-width="1.1"/>
<line clip-path="url(#clipPath19)" fill="none" x1="235" x2="239" y1="292" y2="298" stroke-width="1.1"/>
<line clip-path="url(#clipPath19)" fill="none" x1="239" x2="239" y1="298" y2="286" stroke-width="1.1"/>
<line clip-path="url(#clipPath19)" fill="none" x1="239" x2="239" y1="286" y2="298" stroke-width="1.1"/>
<line clip-path="url(#clipPath19)" fill="none" x1="239" x2="243" y1="298" y2="292" stroke-width="1.1"/>
<text x="181" y="277" clip-path="url(#clipPath20)" stroke="none" stroke-width="1.1" xml:space="preserve">result</text>
<rect x="666" y="353" clip-path="url(#clipPath21)" fill="white" width="145" rx="4" opacity="0.3922" ry="4" height="265" stroke="none" stroke-width="1.1"/>
<text x="672" y="372" clip-path="url(#clipPath22)" stroke="none" stroke-width="1.1" xml:space="preserve">&lt;&lt;conditional&gt;&gt;</text>
<rect x="672" y="377" clip-path="url(#clipPath23)" fill="white" width="119" rx="7.5" ry="7.5" height="40" stroke="none" stroke-width="1.1"/>
<text x="684" y="402" clip-path="url(#clipPath24)" stroke="none" stroke-width="1.1" xml:space="preserve">UserManagement</text>
<rect x="672" y="377" clip-path="url(#clipPath23)" fill="none" width="118" rx="7.5" ry="7.5" height="39" stroke-width="1.1"/>
<rect x="672" y="425" clip-path="url(#clipPath25)" fill="white" width="119" rx="7.5" ry="7.5" height="40" stroke="none" stroke-width="1.1"/>
<text x="678" y="450" clip-path="url(#clipPath26)" stroke="none" stroke-width="1.1" xml:space="preserve">ScreenManagement</text>
<rect x="672" y="425" clip-path="url(#clipPath25)" fill="none" width="118" rx="7.5" ry="7.5" height="39" stroke-width="1.1"/>
<rect x="666" y="353" clip-path="url(#clipPath21)" fill="none" width="144" stroke-dasharray="6.6,3.3" rx="4" ry="4" height="264" stroke-width="1.1"/>
</g>
<g stroke-linecap="butt" fill="white" font-family="'Segoe UI'" stroke-dasharray="6.6,3.3" stroke="white" stroke-width="1.1">
<rect x="438" y="353" clip-path="url(#clipPath27)" width="109" rx="4" opacity="0.3922" ry="4" height="134" stroke="none"/>
<text x="444" y="372" clip-path="url(#clipPath28)" fill="black" stroke="none" xml:space="preserve">&lt;&lt;conditional&gt;&gt;</text>
<rect x="450" y="426" clip-path="url(#clipPath29)" width="65" rx="7.5" ry="7.5" height="40" stroke="none"/>
<text x="456" y="451" clip-path="url(#clipPath30)" fill="black" stroke="none" xml:space="preserve">Customer</text>
<rect x="450" y="426" clip-path="url(#clipPath29)" fill="none" width="64" stroke-dasharray="none" rx="7.5" ry="7.5" height="39" stroke="black"/>
<rect x="450" y="378" clip-path="url(#clipPath31)" width="65" stroke-dasharray="none" rx="7.5" ry="7.5" height="40" stroke="none"/>
<text x="458" y="403" clip-path="url(#clipPath32)" fill="black" stroke-dasharray="none" stroke="none" xml:space="preserve">Manager</text>
<rect x="450" y="378" clip-path="url(#clipPath31)" fill="none" width="64" stroke-dasharray="none" rx="7.5" ry="7.5" height="39" stroke="black"/>
<rect x="438" y="353" clip-path="url(#clipPath27)" fill="none" width="108" rx="4" ry="4" height="133" stroke="black"/>
<rect x="670" y="653" clip-path="url(#clipPath33)" width="181" rx="4" opacity="0.3922" ry="4" height="469" stroke="none"/>
<text x="676" y="672" clip-path="url(#clipPath34)" fill="black" stroke="none" xml:space="preserve">&lt;&lt;conditional&gt;&gt;</text>
<rect x="682" y="725" clip-path="url(#clipPath35)" width="97" rx="7.5" ry="7.5" height="40" stroke="none"/>
<text x="690" y="750" clip-path="url(#clipPath36)" fill="black" stroke="none" xml:space="preserve">ShowShowings</text>
<rect x="682" y="725" clip-path="url(#clipPath35)" fill="none" width="96" stroke-dasharray="none" rx="7.5" ry="7.5" height="39" stroke="black"/>
<rect x="682" y="773" clip-path="url(#clipPath37)" width="97" stroke-dasharray="none" rx="7.5" ry="7.5" height="40" stroke="none"/>
<text x="687" y="798" clip-path="url(#clipPath38)" fill="black" stroke-dasharray="none" stroke="none" xml:space="preserve">CinemaFacilities</text>
<rect x="682" y="773" clip-path="url(#clipPath37)" fill="none" width="96" stroke-dasharray="none" rx="7.5" ry="7.5" height="39" stroke="black"/>
<rect x="682" y="677" clip-path="url(#clipPath39)" width="85" stroke-dasharray="none" rx="7.5" ry="7.5" height="40" stroke="none"/>
<text x="690" y="702" clip-path="url(#clipPath40)" fill="black" stroke-dasharray="none" stroke="none" xml:space="preserve">ShowMovies</text>
<rect x="682" y="677" clip-path="url(#clipPath39)" fill="none" width="84" stroke-dasharray="none" rx="7.5" ry="7.5" height="39" stroke="black"/>
<rect x="682" y="821" clip-path="url(#clipPath41)" width="85" stroke-dasharray="none" rx="7.5" ry="7.5" height="40" stroke="none"/>
<text x="688" y="846" clip-path="url(#clipPath42)" fill="black" stroke-dasharray="none" stroke="none" xml:space="preserve">CinemaPrices</text>
<rect x="682" y="821" clip-path="url(#clipPath41)" fill="none" width="84" stroke-dasharray="none" rx="7.5" ry="7.5" height="39" stroke="black"/>
<rect x="682" y="869" clip-path="url(#clipPath43)" width="133" stroke-dasharray="none" rx="7.5" ry="7.5" height="40" stroke="none"/>
<text x="690" y="894" clip-path="url(#clipPath44)" fill="black" stroke-dasharray="none" stroke="none" xml:space="preserve">PaymentsRefundsInfo</text>
<rect x="682" y="869" clip-path="url(#clipPath43)" fill="none" width="132" stroke-dasharray="none" rx="7.5" ry="7.5" height="39" stroke="black"/>
<rect x="682" y="917" clip-path="url(#clipPath45)" width="61" stroke-dasharray="none" rx="7.5" ry="7.5" height="40" stroke="none"/>
<text x="690" y="942" clip-path="url(#clipPath46)" fill="black" stroke-dasharray="none" stroke="none" xml:space="preserve">Booking</text>
<rect x="682" y="917" clip-path="url(#clipPath45)" fill="none" width="60" stroke-dasharray="none" rx="7.5" ry="7.5" height="39" stroke="black"/>
<rect x="682" y="965" clip-path="url(#clipPath47)" width="145" stroke-dasharray="none" rx="7.5" ry="7.5" height="40" stroke="none"/>
<text x="694" y="990" clip-path="url(#clipPath48)" fill="black" stroke-dasharray="none" stroke="none" xml:space="preserve">AmendPersonalDetails</text>
<rect x="682" y="965" clip-path="url(#clipPath47)" fill="none" width="144" stroke-dasharray="none" rx="7.5" ry="7.5" height="39" stroke="black"/>
<rect x="682" y="1013" clip-path="url(#clipPath49)" width="40" stroke-dasharray="none" rx="7.5" ry="7.5" height="40" stroke="none"/>
<text x="690" y="1038" clip-path="url(#clipPath50)" fill="black" stroke-dasharray="none" stroke="none" xml:space="preserve">EXIT</text>
<rect x="682" y="1013" clip-path="url(#clipPath49)" fill="none" width="39" stroke-dasharray="none" rx="7.5" ry="7.5" height="39" stroke="black"/>
<rect x="670" y="653" clip-path="url(#clipPath33)" fill="none" width="180" rx="4" ry="4" height="468" stroke="black"/>
<rect x="670" y="521" clip-path="url(#clipPath51)" width="125" rx="7.5" ry="7.5" height="40" stroke="none"/>
<text x="674" y="546" clip-path="url(#clipPath52)" fill="black" stroke="none" xml:space="preserve">BookingManagement</text>
<rect x="670" y="521" clip-path="url(#clipPath51)" fill="none" width="124" stroke-dasharray="none" rx="7.5" ry="7.5" height="39" stroke="black"/>
<rect x="670" y="569" clip-path="url(#clipPath53)" width="40" stroke-dasharray="none" rx="7.5" ry="7.5" height="40" stroke="none"/>
<text x="678" y="594" clip-path="url(#clipPath54)" fill="black" stroke-dasharray="none" stroke="none" xml:space="preserve">EXIT</text>
<rect x="670" y="569" clip-path="url(#clipPath53)" fill="none" width="39" stroke-dasharray="none" rx="7.5" ry="7.5" height="39" stroke="black"/>
<rect x="670" y="473" clip-path="url(#clipPath55)" width="119" stroke-dasharray="none" rx="7.5" ry="7.5" height="40" stroke="none"/>
<text x="677" y="498" clip-path="url(#clipPath56)" fill="black" stroke-dasharray="none" stroke="none" xml:space="preserve">MovieManagement</text>
<rect x="670" y="473" clip-path="url(#clipPath55)" fill="none" width="118" stroke-dasharray="none" rx="7.5" ry="7.5" height="39" stroke="black"/>
<rect x="142" y="101" clip-path="url(#clipPath57)" width="94" stroke-dasharray="none" height="42" stroke="none"/>
<text x="148" y="120" clip-path="url(#clipPath58)" fill="black" stroke-dasharray="none" stroke="none" xml:space="preserve">&lt;&lt;datastore&gt;&gt;</text>
<text x="161" y="135" clip-path="url(#clipPath58)" fill="black" stroke-dasharray="none" stroke="none" xml:space="preserve">system.ser</text>
<rect x="142" y="101" clip-path="url(#clipPath57)" fill="none" width="93" stroke-dasharray="none" height="41" stroke="black"/>
<rect x="934" y="857" clip-path="url(#clipPath59)" width="68" stroke-dasharray="none" rx="7.5" ry="7.5" height="40" stroke="none"/>
<text x="935" y="882" clip-path="url(#clipPath60)" fill="black" stroke-dasharray="none" stroke="none" xml:space="preserve">Utilities.save</text>
<rect x="934" y="857" clip-path="url(#clipPath59)" fill="none" width="67" stroke-dasharray="none" rx="7.5" ry="7.5" height="39" stroke="black"/>
<rect x="1001" y="872" clip-path="url(#clipPath61)" width="16" stroke-dasharray="none" height="16" stroke="none"/>
<rect x="1001" y="872" clip-path="url(#clipPath61)" fill="none" width="15" stroke-dasharray="none" height="15" stroke="black"/>
<text x="1037" y="906" clip-path="url(#clipPath62)" fill="black" stroke-dasharray="none" stroke="none" xml:space="preserve">serialized data</text>
<rect x="1102" y="857" clip-path="url(#clipPath63)" width="94" stroke-dasharray="none" height="42" stroke="none"/>
<text x="1108" y="876" clip-path="url(#clipPath64)" fill="black" stroke-dasharray="none" stroke="none" xml:space="preserve">&lt;&lt;datastore&gt;&gt;</text>
<text x="1121" y="891" clip-path="url(#clipPath64)" fill="black" stroke-dasharray="none" stroke="none" xml:space="preserve">system.ser</text>
<rect x="1102" y="857" clip-path="url(#clipPath63)" fill="none" width="93" stroke-dasharray="none" height="41" stroke="black"/>
<rect x="1239" y="36" clip-path="url(#clipPath65)" width="14" stroke-dasharray="none" height="1130" stroke="none"/>
<rect x="1241" y="36" clip-path="url(#clipPath66)" width="12" stroke-dasharray="none" opacity="0.5098" height="12" stroke="none"/>
</g>
<g fill="rgb(185,185,185)" stroke-width="26.1" font-family="'Segoe UI'" stroke-linecap="butt" stroke="rgb(185,185,185)">
<rect x="1241" y="36" clip-path="url(#clipPath66)" fill="none" width="12" opacity="0.5098" height="12"/>
<line clip-path="url(#clipPath66)" fill="none" x1="1246" x2="1247" y1="89" y2="88" opacity="0.5098" stroke="rgb(187,187,187)" stroke-width="52.1"/>
<line clip-path="url(#clipPath66)" fill="none" x1="1247" x2="1248" y1="88" y2="89" opacity="0.5098" stroke="rgb(187,187,187)" stroke-width="52.1"/>
<rect x="1241" y="1154" clip-path="url(#clipPath67)" fill="white" width="12" opacity="0.5098" height="12" stroke="none" stroke-width="52.1"/>
<rect x="1241" y="1154" clip-path="url(#clipPath67)" fill="none" width="12" opacity="0.5098" height="12"/>
<line clip-path="url(#clipPath67)" fill="none" x1="1246" x2="1247" y1="1206" y2="1207" opacity="0.5098" stroke="rgb(187,187,187)" stroke-width="52.1"/>
<line clip-path="url(#clipPath67)" fill="none" x1="1247" x2="1248" y1="1207" y2="1206" opacity="0.5098" stroke="rgb(187,187,187)" stroke-width="52.1"/>
<rect x="1241" y="48" clip-path="url(#clipPath68)" fill="white" width="12" opacity="0.5098" height="1033" stroke="none" stroke-width="52.1"/>
<rect x="1241" y="48" clip-path="url(#clipPath68)" fill="none" width="12" opacity="0.5098" height="1033"/>
<rect x="10" y="10" clip-path="url(#clipPath1)" fill="none" width="1247" rx="7.5" ry="7.5" height="1160" stroke="black" stroke-width="1.1"/>
</g>
<g text-rendering="optimizeLegibility" stroke-width="1.1" font-family="'Segoe UI'" stroke-linecap="butt">
<line clip-path="url(#clipPath69)" fill="none" x1="614" x2="614" y1="173" y2="130"/>
<line clip-path="url(#clipPath69)" fill="none" x1="614" x2="490" y1="130" y2="130"/>
<line clip-path="url(#clipPath69)" fill="none" x1="490" x2="490" y1="130" y2="173"/>
<line clip-path="url(#clipPath70)" fill="none" x1="486" x2="490" y1="163" y2="173"/>
<line clip-path="url(#clipPath70)" fill="none" x1="490" x2="494" y1="173" y2="163"/>
<text xml:space="preserve" x="632" y="147" clip-path="url(#clipPath71)" stroke="none"> </text>
<line clip-path="url(#clipPath69)" fill="none" x1="515" x2="672" y1="395" y2="395"/>
<line clip-path="url(#clipPath72)" fill="none" x1="662" x2="672" y1="399" y2="395"/>
<line clip-path="url(#clipPath72)" fill="none" x1="672" x2="662" y1="395" y2="391"/>
<text xml:space="preserve" x="562" y="414" clip-path="url(#clipPath73)" stroke="none"> </text>
<line clip-path="url(#clipPath69)" fill="none" x1="481" x2="481" y1="466" y2="694"/>
<line clip-path="url(#clipPath69)" fill="none" x1="481" x2="682" y1="694" y2="694"/>
<line clip-path="url(#clipPath74)" fill="none" x1="672" x2="682" y1="698" y2="694"/>
<line clip-path="url(#clipPath74)" fill="none" x1="682" x2="672" y1="694" y2="690"/>
<text xml:space="preserve" x="458" y="509" clip-path="url(#clipPath75)" stroke="none"> </text>
<line clip-path="url(#clipPath69)" fill="none" x1="730" x2="622" y1="284" y2="284"/>
<line clip-path="url(#clipPath69)" fill="none" x1="622" x2="622" y1="284" y2="222"/>
<line clip-path="url(#clipPath76)" fill="none" x1="626" x2="622" y1="232" y2="222"/>
<line clip-path="url(#clipPath76)" fill="none" x1="622" x2="618" y1="222" y2="232"/>
<text xml:space="preserve" x="654" y="282" clip-path="url(#clipPath77)" stroke="none">[false]</text>
<line clip-path="url(#clipPath69)" fill="none" x1="659" x2="706" y1="190" y2="190"/>
<line clip-path="url(#clipPath78)" fill="none" x1="696" x2="706" y1="194" y2="190"/>
<line clip-path="url(#clipPath78)" fill="none" x1="706" x2="696" y1="190" y2="186"/>
<text xml:space="preserve" x="670" y="210" clip-path="url(#clipPath79)" stroke="none"> </text>
<line clip-path="url(#clipPath69)" fill="none" x1="710" x2="968" y1="589" y2="589"/>
<line clip-path="url(#clipPath69)" fill="none" x1="968" x2="968" y1="589" y2="857"/>
<line clip-path="url(#clipPath80)" fill="none" x1="964" x2="968" y1="847" y2="857"/>
<line clip-path="url(#clipPath80)" fill="none" x1="968" x2="972" y1="857" y2="847"/>
<text xml:space="preserve" x="787" y="615" clip-path="url(#clipPath81)" stroke="none"> </text>
<line clip-path="url(#clipPath69)" fill="none" x1="737" x2="737" y1="213" y2="273"/>
<line clip-path="url(#clipPath82)" fill="none" x1="733" x2="737" y1="263" y2="273"/>
<line clip-path="url(#clipPath82)" fill="none" x1="737" x2="741" y1="273" y2="263"/>
<text xml:space="preserve" x="715" y="228" clip-path="url(#clipPath83)" stroke="none"> </text>
<line clip-path="url(#clipPath69)" fill="none" x1="283" x2="283" y1="222" y2="245"/>
<line clip-path="url(#clipPath84)" fill="none" x1="279" x2="283" y1="235" y2="245"/>
<line clip-path="url(#clipPath84)" fill="none" x1="283" x2="287" y1="245" y2="235"/>
<text xml:space="preserve" x="261" y="231" clip-path="url(#clipPath85)" stroke="none"> </text>
<line clip-path="url(#clipPath69)" fill="none" x1="553" x2="574" y1="195" y2="195"/>
<line clip-path="url(#clipPath86)" fill="none" x1="564" x2="574" y1="199" y2="195"/>
<line clip-path="url(#clipPath86)" fill="none" x1="574" x2="564" y1="195" y2="191"/>
<text xml:space="preserve" x="557" y="210" clip-path="url(#clipPath87)" stroke="none"> </text>
<line clip-path="url(#clipPath69)" fill="none" x1="347" x2="390" y1="193" y2="193"/>
<line clip-path="url(#clipPath88)" fill="none" x1="380" x2="390" y1="197" y2="193"/>
<line clip-path="url(#clipPath88)" fill="none" x1="390" x2="380" y1="193" y2="189"/>
<text xml:space="preserve" x="360" y="210" clip-path="url(#clipPath89)" stroke="none"> </text>
<line clip-path="url(#clipPath69)" fill="none" x1="1017" x2="1102" y1="879" y2="879"/>
<line clip-path="url(#clipPath90)" fill="none" x1="1092" x2="1102" y1="883" y2="879"/>
<line clip-path="url(#clipPath90)" fill="none" x1="1102" x2="1092" y1="879" y2="875"/>
<line clip-path="url(#clipPath69)" fill="none" x1="230" x2="230" y1="143" y2="182"/>
<line clip-path="url(#clipPath91)" fill="none" x1="226" x2="230" y1="172" y2="182"/>
<line clip-path="url(#clipPath91)" fill="none" x1="230" x2="234" y1="182" y2="172"/>
<line clip-path="url(#clipPath69)" fill="none" x1="141" x2="238" y1="191" y2="191"/>
<line clip-path="url(#clipPath92)" fill="none" x1="228" x2="238" y1="195" y2="191"/>
<line clip-path="url(#clipPath92)" fill="none" x1="238" x2="228" y1="191" y2="187"/>
<text xml:space="preserve" x="162" y="210" clip-path="url(#clipPath93)" stroke="none"> </text>
<line clip-path="url(#clipPath69)" fill="none" x1="742" x2="742" y1="296" y2="330"/>
<line clip-path="url(#clipPath69)" fill="none" x1="742" x2="202" y1="330" y2="330"/>
<line clip-path="url(#clipPath69)" fill="none" x1="202" x2="202" y1="330" y2="391"/>
<line clip-path="url(#clipPath69)" fill="none" x1="202" x2="295" y1="391" y2="391"/>
<line clip-path="url(#clipPath94)" fill="none" x1="285" x2="295" y1="395" y2="391"/>
<line clip-path="url(#clipPath94)" fill="none" x1="295" x2="285" y1="391" y2="387"/>
<text xml:space="preserve" x="584" y="322" clip-path="url(#clipPath95)" stroke="none">[true]</text>
<line clip-path="url(#clipPath69)" fill="none" x1="722" x2="974" y1="1027" y2="1027"/>
<line clip-path="url(#clipPath69)" fill="none" x1="974" x2="974" y1="1027" y2="897"/>
<line clip-path="url(#clipPath96)" fill="none" x1="978" x2="974" y1="907" y2="897"/>
<line clip-path="url(#clipPath96)" fill="none" x1="974" x2="970" y1="897" y2="907"/>
<text xml:space="preserve" x="777" y="1053" clip-path="url(#clipPath97)" stroke="none"> </text>
<line clip-path="url(#clipPath69)" fill="none" x1="383" x2="450" y1="398" y2="398"/>
<line clip-path="url(#clipPath98)" fill="none" x1="440" x2="450" y1="402" y2="398"/>
<line clip-path="url(#clipPath98)" fill="none" x1="450" x2="440" y1="398" y2="394"/>
<text xml:space="preserve" x="391" y="424" clip-path="url(#clipPath99)" stroke="none"> </text>
<line clip-path="url(#clipPath69)" fill="none" x1="347" x2="390" y1="193" y2="193"/>
<line clip-path="url(#clipPath88)" fill="none" x1="380" x2="390" y1="197" y2="193"/>
<line clip-path="url(#clipPath88)" fill="none" x1="390" x2="380" y1="193" y2="189"/>
<text xml:space="preserve" x="360" y="210" clip-path="url(#clipPath89)" stroke="none"> </text>
<line clip-path="url(#clipPath69)" fill="none" x1="553" x2="574" y1="195" y2="195"/>
<line clip-path="url(#clipPath86)" fill="none" x1="564" x2="574" y1="199" y2="195"/>
<line clip-path="url(#clipPath86)" fill="none" x1="574" x2="564" y1="195" y2="191"/>
<text xml:space="preserve" x="557" y="210" clip-path="url(#clipPath87)" stroke="none"> </text>
<line clip-path="url(#clipPath69)" fill="none" x1="659" x2="706" y1="190" y2="190"/>
<line clip-path="url(#clipPath78)" fill="none" x1="696" x2="706" y1="194" y2="190"/>
<line clip-path="url(#clipPath78)" fill="none" x1="706" x2="696" y1="190" y2="186"/>
<text xml:space="preserve" x="670" y="210" clip-path="url(#clipPath79)" stroke="none"> </text>
<line clip-path="url(#clipPath69)" fill="none" x1="737" x2="737" y1="213" y2="273"/>
<line clip-path="url(#clipPath82)" fill="none" x1="733" x2="737" y1="263" y2="273"/>
<line clip-path="url(#clipPath82)" fill="none" x1="737" x2="741" y1="273" y2="263"/>
<text xml:space="preserve" x="715" y="228" clip-path="url(#clipPath83)" stroke="none"> </text>
<line clip-path="url(#clipPath69)" fill="none" x1="730" x2="622" y1="284" y2="284"/>
<line clip-path="url(#clipPath69)" fill="none" x1="622" x2="622" y1="284" y2="222"/>
<line clip-path="url(#clipPath76)" fill="none" x1="626" x2="622" y1="232" y2="222"/>
<line clip-path="url(#clipPath76)" fill="none" x1="622" x2="618" y1="222" y2="232"/>
<text xml:space="preserve" x="654" y="282" clip-path="url(#clipPath77)" stroke="none">[false]</text>
<line clip-path="url(#clipPath69)" fill="none" x1="742" x2="742" y1="296" y2="330"/>
<line clip-path="url(#clipPath69)" fill="none" x1="742" x2="202" y1="330" y2="330"/>
<line clip-path="url(#clipPath69)" fill="none" x1="202" x2="202" y1="330" y2="391"/>
<line clip-path="url(#clipPath69)" fill="none" x1="202" x2="295" y1="391" y2="391"/>
<line clip-path="url(#clipPath94)" fill="none" x1="285" x2="295" y1="395" y2="391"/>
<line clip-path="url(#clipPath94)" fill="none" x1="295" x2="285" y1="391" y2="387"/>
<text xml:space="preserve" x="584" y="322" clip-path="url(#clipPath95)" stroke="none">[true]</text>
<line clip-path="url(#clipPath69)" fill="none" x1="283" x2="283" y1="222" y2="245"/>
<line clip-path="url(#clipPath84)" fill="none" x1="279" x2="283" y1="235" y2="245"/>
<line clip-path="url(#clipPath84)" fill="none" x1="283" x2="287" y1="245" y2="235"/>
<text xml:space="preserve" x="261" y="231" clip-path="url(#clipPath85)" stroke="none"> </text>
<line clip-path="url(#clipPath69)" fill="none" x1="383" x2="450" y1="398" y2="398"/>
<line clip-path="url(#clipPath98)" fill="none" x1="440" x2="450" y1="402" y2="398"/>
<line clip-path="url(#clipPath98)" fill="none" x1="450" x2="440" y1="398" y2="394"/>
<text xml:space="preserve" x="391" y="424" clip-path="url(#clipPath99)" stroke="none"> </text>
<line clip-path="url(#clipPath69)" fill="none" x1="515" x2="672" y1="395" y2="395"/>
<line clip-path="url(#clipPath72)" fill="none" x1="662" x2="672" y1="399" y2="395"/>
<line clip-path="url(#clipPath72)" fill="none" x1="672" x2="662" y1="395" y2="391"/>
<text xml:space="preserve" x="562" y="414" clip-path="url(#clipPath73)" stroke="none"> </text>
<line clip-path="url(#clipPath69)" fill="none" x1="481" x2="481" y1="466" y2="694"/>
<line clip-path="url(#clipPath69)" fill="none" x1="481" x2="682" y1="694" y2="694"/>
<line clip-path="url(#clipPath74)" fill="none" x1="672" x2="682" y1="698" y2="694"/>
<line clip-path="url(#clipPath74)" fill="none" x1="682" x2="672" y1="694" y2="690"/>
<text xml:space="preserve" x="458" y="509" clip-path="url(#clipPath75)" stroke="none"> </text>
<line clip-path="url(#clipPath69)" fill="none" x1="141" x2="238" y1="191" y2="191"/>
<line clip-path="url(#clipPath92)" fill="none" x1="228" x2="238" y1="195" y2="191"/>
<line clip-path="url(#clipPath92)" fill="none" x1="238" x2="228" y1="191" y2="187"/>
<text xml:space="preserve" x="162" y="210" clip-path="url(#clipPath93)" stroke="none"> </text>
<line clip-path="url(#clipPath69)" fill="none" x1="230" x2="230" y1="143" y2="182"/>
<line clip-path="url(#clipPath91)" fill="none" x1="226" x2="230" y1="172" y2="182"/>
<line clip-path="url(#clipPath91)" fill="none" x1="230" x2="234" y1="182" y2="172"/>
<line clip-path="url(#clipPath69)" fill="none" x1="614" x2="614" y1="173" y2="130"/>
<line clip-path="url(#clipPath69)" fill="none" x1="614" x2="490" y1="130" y2="130"/>
<line clip-path="url(#clipPath69)" fill="none" x1="490" x2="490" y1="130" y2="173"/>
<line clip-path="url(#clipPath70)" fill="none" x1="486" x2="490" y1="163" y2="173"/>
<line clip-path="url(#clipPath70)" fill="none" x1="490" x2="494" y1="173" y2="163"/>
<text xml:space="preserve" x="632" y="147" clip-path="url(#clipPath71)" stroke="none"> </text>
<line clip-path="url(#clipPath69)" fill="none" x1="710" x2="968" y1="589" y2="589"/>
<line clip-path="url(#clipPath69)" fill="none" x1="968" x2="968" y1="589" y2="857"/>
<line clip-path="url(#clipPath80)" fill="none" x1="964" x2="968" y1="847" y2="857"/>
<line clip-path="url(#clipPath80)" fill="none" x1="968" x2="972" y1="857" y2="847"/>
<text xml:space="preserve" x="787" y="615" clip-path="url(#clipPath81)" stroke="none"> </text>
<line clip-path="url(#clipPath69)" fill="none" x1="722" x2="974" y1="1027" y2="1027"/>
<line clip-path="url(#clipPath69)" fill="none" x1="974" x2="974" y1="1027" y2="897"/>
<line clip-path="url(#clipPath96)" fill="none" x1="978" x2="974" y1="907" y2="897"/>
<line clip-path="url(#clipPath96)" fill="none" x1="974" x2="970" y1="897" y2="907"/>
<text xml:space="preserve" x="777" y="1053" clip-path="url(#clipPath97)" stroke="none"> </text>
<line clip-path="url(#clipPath69)" fill="none" x1="1017" x2="1102" y1="879" y2="879"/>
<line clip-path="url(#clipPath90)" fill="none" x1="1092" x2="1102" y1="883" y2="879"/>
<line clip-path="url(#clipPath90)" fill="none" x1="1102" x2="1092" y1="879" y2="875"/>
</g>
</g>
</svg>
